<?xml version="1.0" encoding="UTF-8" standalone="no"?>
<!-- Generator: Adobe Illustrator 16.0.0, SVG Export Plug-In . SVG Version: 6.00 Build 0)  -->

<svg
   xmlns:dc="http://purl.org/dc/elements/1.1/"
   xmlns:cc="http://creativecommons.org/ns#"
   xmlns:rdf="http://www.w3.org/1999/02/22-rdf-syntax-ns#"
   xmlns:svg="http://www.w3.org/2000/svg"
   xmlns="http://www.w3.org/2000/svg"
   xmlns:sodipodi="http://sodipodi.sourceforge.net/DTD/sodipodi-0.dtd"
   xmlns:inkscape="http://www.inkscape.org/namespaces/inkscape"
   version="1.1"
   id="Capa_1"
   x="0px"
   y="0px"
   width="193.266px"
   height="193.266px"
   viewBox="0 0 193.266 193.266"
   style="enable-background:new 0 0 193.266 193.266;"
   xml:space="preserve"
   sodipodi:docname="left-arrow-sketch.svg"
   inkscape:version="0.92.5 (2060ec1f9f, 2020-04-08)"><metadata
   id="metadata41"><rdf:RDF><cc:Work
       rdf:about=""><dc:format>image/svg+xml</dc:format><dc:type
         rdf:resource="http://purl.org/dc/dcmitype/StillImage" /><dc:title></dc:title></cc:Work></rdf:RDF></metadata><defs
   id="defs39" /><sodipodi:namedview
   pagecolor="#ffffff"
   bordercolor="#666666"
   borderopacity="1"
   objecttolerance="10"
   gridtolerance="10"
   guidetolerance="10"
   inkscape:pageopacity="0"
   inkscape:pageshadow="2"
   inkscape:window-width="1848"
   inkscape:window-height="1016"
   id="namedview37"
   showgrid="false"
   inkscape:zoom="1.2211149"
   inkscape:cx="96.633003"
   inkscape:cy="96.633003"
   inkscape:window-x="72"
   inkscape:window-y="27"
   inkscape:window-maximized="1"
   inkscape:current-layer="Capa_1" />
<g
   id="g4"
   transform="rotate(-180,96.633182,96.633566)">
	<path
   d="M 183.011,111.191 C 169.508,74.774 131.258,64.862 96.046,73.215 97.231,64.372 96.921,55.328 96.695,46.434 96.494,38.482 97,29.389 95.584,21.28 c -0.005,-0.037 -0.013,-0.071 -0.018,-0.107 -0.258,-1.465 -0.56,-2.907 -0.963,-4.292 -0.79,-2.72 -4.822,-2.799 -5.572,0 -0.139,0.515 -0.218,1.048 -0.325,1.573 C 74.212,21.271 60.897,32.027 49.744,40.846 43.438,45.832 37.301,51.042 31.257,56.357 30.648,56.25 30.083,56.749 30.158,57.326 20.107,66.224 10.404,75.518 1.236,85.305 c -1.426,1.523 -1.855,4.518 0,5.972 30.215,23.666 57.453,52.513 89.75,73.318 0.635,0.409 1.248,0.315 1.7,-0.025 1.129,0.224 2.323,-0.152 3.133,-1.298 3.548,-5.033 1.35,-16.004 1.158,-21.858 -0.319,-9.69 -0.359,-19.447 -1.299,-29.103 -0.306,-3.148 -4.586,-3.148 -4.892,0 -0.208,2.139 -0.363,4.281 -0.492,6.427 -20.425,-16.76 -42.62,-32.602 -64.911,-46.671 3.142,-3.206 6.384,-6.417 9.706,-9.579 17.919,17.464 39.387,32.001 59.841,46.1 0.571,0.394 1.116,0.463 1.593,0.346 -1.207,1.029 -1.539,2.12 0.312,3.051 3.231,1.624 7.92,-0.111 11.33,-0.231 10.472,-0.368 21.174,1.799 31.254,4.421 27.209,7.077 36.858,32.485 35.867,58.302 -0.162,4.208 4.941,5.065 7.204,2.634 21.646,-4.677 4.687,-54.684 0.521,-65.92 z M 88.837,157.484 C 65.472,131.869 37.683,109.119 10.421,87.824 c 2.155,-2.315 4.39,-4.705 6.668,-7.12 19.029,25.518 47.702,41.455 72.384,60.894 -0.188,4.102 -1.213,10.622 -0.636,15.886 z m 1.2,-33.605 c -0.162,4.025 -0.254,8.054 -0.372,12.08 C 65.822,117.152 38.853,102.005 18.612,79.09 c 1.762,-1.859 3.572,-3.737 5.402,-5.62 22.394,15.921 42.458,36.302 66.023,50.409 z m 85.19,-10.542 c 0.388,0.962 0.846,2.13 1.327,3.38 -4.065,-4.199 -8.558,-8.104 -12.592,-12.078 C 155.5,96.3 146.638,88.379 137.72,80.537 c -0.074,-0.065 -0.153,-0.094 -0.229,-0.134 16.448,4.455 30.4,14.684 37.736,32.934 z M 88.021,27.104 c 0.093,4.376 0.63,8.813 0.979,13.056 -1.274,-0.877 -2.578,-1.695 -3.752,-2.525 -2.876,-2.031 -5.853,-3.905 -8.873,-5.709 3.83,-1.9 7.71,-3.545 11.646,-4.822 z m -14.573,6.349 c 3.091,1.995 6.117,4.073 9.061,6.282 2.224,1.668 4.412,3.892 6.821,5.546 0.125,2.239 0.251,4.477 0.361,6.72 -3.283,-2.633 -7.01,-4.847 -10.415,-7.213 -4.007,-2.784 -8.194,-5.403 -12.651,-7.413 2.25,-1.405 4.531,-2.693 6.823,-3.922 z m -9.507,5.641 c 4.186,2.222 8.243,4.523 12.17,7.215 4.617,3.165 8.874,7.295 13.794,9.992 0.095,1.959 0.187,3.918 0.291,5.876 -4.137,-2.947 -9.297,-5.183 -13.327,-7.531 -6.35,-3.699 -12.537,-7.595 -18.672,-11.602 1.896,-1.373 3.815,-2.682 5.744,-3.95 z m 40.394,66.202 c -0.323,0.056 -4.208,1.296 -6.711,2.84 0.688,-0.955 0.764,-2.481 -0.44,-3.406 C 77.457,89.566 56.738,75.862 37.016,60.667 c 2.521,-2.36 5.105,-4.66 7.718,-6.924 23.335,16.969 47.495,32.496 69.889,50.762 -3.548,0.008 -7.022,0.236 -10.288,0.791 z m 14.929,-0.668 c 0.382,-0.715 0.353,-1.603 -0.473,-2.339 C 96.915,82.781 71.129,68.128 46.737,52.032 c 3.079,-2.607 6.219,-5.115 9.409,-7.5 5.407,4.148 11.154,7.877 16.839,11.605 5.502,3.607 11.394,8.754 17.526,11.596 0.153,2.407 0.316,4.812 0.521,7.21 -1.264,1.352 -0.779,3.649 0.804,4.59 0.73,0.819 2.023,1.022 2.76,0.261 3.474,-0.692 6.979,-1.195 10.482,-1.563 9.283,11.346 21.512,20.502 33.053,29.368 -5.929,-1.516 -12.422,-2.613 -18.867,-2.971 z m 22.269,3.868 c -0.284,-0.084 -0.597,-0.152 -0.886,-0.233 0.97,-0.591 1.539,-2.063 0.486,-2.884 -11.471,-8.927 -23.009,-17.109 -33.122,-27.423 4.293,-0.334 8.564,-0.37 12.778,-0.152 -0.297,0.334 -0.387,0.847 0.021,1.274 12.762,13.315 26.317,25.026 38.656,37.992 -5.099,-3.632 -11.055,-6.544 -17.933,-8.574 z M 122.35,77.89 c 5.049,0.35 9.978,1.152 14.714,2.403 -0.772,0.003 -1.441,0.948 -0.725,1.624 7.854,7.391 15.739,14.75 23.424,22.317 7.246,7.133 13.191,15.561 20.399,22.626 1.472,4.519 2.908,9.507 3.945,14.523 C 171.702,114.656 143.388,97.193 122.35,77.89 Z m 61.124,88.257 c -0.486,-10.317 -2.692,-19.978 -6.774,-28.444 1.848,2.6 3.645,5.262 5.347,8.041 0.654,1.068 2.102,1.034 2.928,0.384 1.149,7.64 1.088,14.912 -1.501,20.019 z"
   id="path2"
   inkscape:connector-curvature="0" />
</g>
<g
   id="g6">
</g>
<g
   id="g8">
</g>
<g
   id="g10">
</g>
<g
   id="g12">
</g>
<g
   id="g14">
</g>
<g
   id="g16">
</g>
<g
   id="g18">
</g>
<g
   id="g20">
</g>
<g
   id="g22">
</g>
<g
   id="g24">
</g>
<g
   id="g26">
</g>
<g
   id="g28">
</g>
<g
   id="g30">
</g>
<g
   id="g32">
</g>
<g
   id="g34">
</g>
</svg>